<svg xmlns="http://www.w3.org/2000/svg" width="770.766" height="98.051"><path d="M20.67 28.93v48.03h-3.62V28.93H.35v-3.37h37.02v3.37h-16.7zm53.54 48.03h-3.44V52.17q0-5.76-2.43-8.38-2.42-2.62-7.52-2.62-6.86 0-10.04 3.46-3.18 3.46-3.18 11.23v21.1h-3.48V22.25h3.48v17.41l-.17 4.88h.24q2.15-3.44 5.42-4.99Q56.36 38 61.21 38q13 0 13 13.96v25zm27.81.7q-8.33 0-12.99-5.13-4.65-5.14-4.65-14.38 0-9.14 4.5-14.64Q93.38 38 101 38q6.75 0 10.66 4.71 3.9 4.72 3.9 12.8v2.81H88.03q.07 7.88 3.68 12.03 3.6 4.15 10.31 4.15 3.27 0 5.75-.46t6.28-1.97v3.16q-3.24 1.41-5.98 1.92t-6.05.51zM101 41.1q-5.52 0-8.86 3.64t-3.9 10.49h23.63q0-6.64-2.89-10.39-2.88-3.74-7.98-3.74zm72.78 32.55v3.31h-28.09v-51.4h28.09v3.3h-24.51V48.3h23.14v3.31h-23.14v22.04h24.51zm61.94 3.31h-3.44V51.89q0-5.59-2.18-8.16-2.18-2.56-6.68-2.56-5.87 0-8.69 3.23-2.81 3.24-2.81 10.16v22.4h-3.55V50.84q0-9.67-8.86-9.67-6.01 0-8.75 3.5-2.74 3.49-2.74 11.19v21.1h-3.48V38.74h2.88l.74 5.24h.21q1.58-2.85 4.5-4.41Q195.79 38 199.3 38q9.04 0 11.6 6.79h.14q1.87-3.27 5.01-5.03Q219.2 38 223.21 38q6.25 0 9.38 3.34 3.13 3.34 3.13 10.62v25zm28.73.7q-8.83 0-12.87-6.61h-.25l.11 2.95q.14 2.61.14 5.7v14.55h-3.48V38.74h2.95l.67 5.45h.21Q255.87 38 264.52 38q7.73 0 11.79 5.08 4.06 5.08 4.06 14.79 0 9.42-4.27 14.6-4.27 5.19-11.65 5.19zm-.07-3.09q5.87 0 9.08-4.36 3.22-4.36 3.22-12.2 0-16.84-12.16-16.84-6.68 0-9.81 3.67-3.13 3.68-3.13 11.97v1.13q0 8.96 3 12.79 3.01 3.84 9.8 3.84zm30.05-35.83v38.22h-3.48V38.74h3.48zm-3.97-10.61q0-3.38 2.22-3.38 1.09 0 1.7.88.62.88.62 2.5 0 1.58-.62 2.49-.61.92-1.7.92-2.22 0-2.22-3.41zM322.28 38q2.42 0 5.2.5l-.67 3.34q-2.39-.6-4.95-.6-4.89 0-8.02 4.15t-3.13 10.47v21.1h-3.48V38.74h2.95l.36 6.89h.24q2.36-4.22 5.03-5.92 2.67-1.71 6.47-1.71zm26.96 39.66q-8.33 0-12.99-5.13-4.66-5.14-4.66-14.38 0-9.14 4.5-14.64 4.5-5.51 12.13-5.51 6.75 0 10.66 4.71 3.9 4.72 3.9 12.8v2.81h-27.53q.07 7.88 3.67 12.03 3.61 4.15 10.32 4.15 3.27 0 5.75-.46t6.28-1.97v3.16q-3.24 1.41-5.98 1.92t-6.05.51zm-1.02-36.56q-5.52 0-8.86 3.64t-3.9 10.49h23.63q0-6.64-2.89-10.39-2.88-3.74-7.98-3.74zm73.06 22.6q0 6.44-4.73 10.2-4.73 3.76-12.57 3.76-9.42 0-14.45-2.07V72q5.56 2.36 14.17 2.36 6.33 0 10.04-2.9 3.71-2.91 3.71-7.62 0-2.91-1.24-4.83-1.23-1.92-4-3.5-2.78-1.58-8.16-3.41-7.87-2.71-10.88-5.85-3.01-3.15-3.01-8.39 0-5.76 4.52-9.4 4.52-3.64 11.62-3.64 7.24 0 13.61 2.74l-1.3 3.1q-6.4-2.68-12.24-2.68-5.69 0-9.07 2.64-3.37 2.64-3.37 7.17 0 2.85 1.03 4.68 1.04 1.83 3.4 3.29 2.35 1.45 8.08 3.49 6.01 2.08 9.04 4.03 3.02 1.95 4.41 4.43 1.39 2.48 1.39 5.99zm20.07 10.87q3.31 0 5.77-.57v2.82q-2.53.84-5.84.84-5.06 0-7.47-2.71-2.41-2.7-2.41-8.5V41.77h-5.66v-2.04l5.66-1.59 1.76-8.64h1.79v9.24h11.22v3.03h-11.22v24.18q0 4.4 1.55 6.51 1.55 2.11 4.85 2.11zM470.43 38q2.42 0 5.2.5l-.67 3.34q-2.39-.6-4.96-.6-4.88 0-8.01 4.15t-3.13 10.47v21.1h-3.48V38.74h2.95l.35 6.89h.25q2.36-4.22 5.03-5.92 2.67-1.71 6.47-1.71zm16.45.74v38.22h-3.48V38.74h3.48zm-3.97-10.61q0-3.38 2.21-3.38 1.09 0 1.71.88.61.88.61 2.5 0 1.58-.61 2.49-.62.92-1.71.92-2.21 0-2.21-3.41zm20 32.06h.18l19.51-21.45h4.22l-15.05 16.31 16.35 21.91h-4.19l-14.52-19.3-6.25 5.69v13.61h-3.48V22.25h3.48v27.43l-.25 10.51zm45.6 17.47q-8.33 0-12.99-5.13-4.66-5.14-4.66-14.38 0-9.14 4.5-14.64 4.5-5.51 12.13-5.51 6.75 0 10.65 4.71 3.9 4.72 3.9 12.8v2.81h-27.52q.07 7.88 3.67 12.03 3.6 4.15 10.32 4.15 3.27 0 5.75-.46 2.47-.46 6.27-1.97v3.16q-3.23 1.41-5.98 1.92-2.74.51-6.04.51zm-1.02-36.56q-5.52 0-8.86 3.64t-3.9 10.49h23.62q0-6.64-2.88-10.39-2.88-3.74-7.98-3.74zm48.8 25.91q0 5.13-3.91 7.89-3.9 2.76-11.07 2.76-7.67 0-12.17-2.36v-3.76q5.77 2.89 12.17 2.89 5.66 0 8.59-1.89 2.94-1.88 2.94-5 0-2.89-2.34-4.86-2.34-1.97-7.68-3.86-5.73-2.08-8.05-3.57-2.32-1.5-3.5-3.38-1.18-1.88-1.18-4.58 0-4.29 3.61-6.79 3.6-2.5 10.07-2.5 6.19 0 11.74 2.32l-1.3 3.17q-5.62-2.32-10.44-2.32-4.68 0-7.42 1.54-2.74 1.55-2.74 4.29 0 2.99 2.13 4.79 2.12 1.79 8.31 4 5.17 1.87 7.52 3.36 2.36 1.49 3.54 3.39 1.18 1.9 1.18 4.47zm29.42 9.95v-51.4h14.1q9.53 0 13.99 3.23 4.47 3.24 4.47 9.78 0 4.46-2.73 7.43-2.72 2.97-7.96 3.82v.21q6.15.91 9.05 3.88 2.9 2.97 2.9 8.28 0 7.1-4.71 10.94-4.71 3.83-13.36 3.83h-15.75zm3.59-48.24v19.73h11.32q7.24 0 10.53-2.41 3.28-2.41 3.28-7.54 0-5.14-3.71-7.46-3.7-2.32-11.05-2.32H629.3zm11.32 22.89H629.3v22.18h12.09q14.27 0 14.27-11.6 0-10.58-15.04-10.58zm55.12 25.35h-2.56l-.88-6.05h-.28q-2.89 3.69-5.93 5.22-3.04 1.53-7.19 1.53-5.62 0-8.75-2.88-3.13-2.89-3.13-7.98 0-5.59 4.66-8.69 4.66-3.09 13.48-3.27l7.28-.21V52.1q0-5.45-2.22-8.22-2.21-2.78-7.13-2.78-5.31 0-11.01 2.95l-1.3-3.02q6.29-2.96 12.45-2.96 6.29 0 9.4 3.27 3.11 3.27 3.11 10.2v25.42zm-16.63-2.46q6.12 0 9.65-3.5 3.54-3.5 3.54-9.72v-3.76l-6.68.28q-8.05.38-11.48 2.51-3.43 2.13-3.43 6.63 0 3.58 2.2 5.57 2.2 1.99 6.2 1.99zm44.27 3.16q-8.2 0-12.84-5.17-4.64-5.17-4.64-14.41 0-9.49 4.82-14.79Q715.54 38 723.9 38q4.96 0 9.49 1.73l-.94 3.09q-4.96-1.65-8.62-1.65-7.03 0-10.65 4.34t-3.62 12.5q0 7.73 3.62 12.11 3.62 4.38 10.12 4.38 5.21 0 9.67-1.87v3.24q-3.65 1.79-9.59 1.79zm22.18-17.47h.17l19.52-21.45h4.21l-15.04 16.31 16.35 21.91h-4.19l-14.52-19.3-6.26 5.69v13.61h-3.48V22.25h3.48v27.43l-.24 10.51z"/></svg>