<svg xmlns="http://www.w3.org/2000/svg" xmlns:xlink="http://www.w3.org/1999/xlink" width="770.765625" height="98.05078125"><path d="M20.67 28.93L20.67 76.96L17.05 76.96L17.05 28.93L0.35 28.93L0.35 25.56L37.37 25.56L37.37 28.93L20.67 28.93ZM74.21 76.96L70.77 76.96L70.77 52.17L70.77 52.17Q70.77 46.41 68.34 43.79L68.34 43.79L68.34 43.79Q65.92 41.17 60.82 41.17L60.82 41.17L60.82 41.17Q53.96 41.17 50.78 44.63L50.78 44.63L50.78 44.63Q47.60 48.09 47.60 55.86L47.60 55.86L47.60 76.96L44.12 76.96L44.12 22.25L47.60 22.25L47.60 39.66L47.43 44.54L47.67 44.54L47.67 44.54Q49.82 41.10 53.09 39.55L53.09 39.55L53.09 39.55Q56.36 38.00 61.21 38.00L61.21 38.00L61.21 38.00Q74.21 38.00 74.21 51.96L74.21 51.96L74.21 76.96ZM102.02 77.66L102.02 77.66L102.02 77.66Q93.69 77.66 89.03 72.53L89.03 72.53L89.03 72.53Q84.38 67.39 84.38 58.15L84.38 58.15L84.38 58.15Q84.38 49.01 88.88 43.51L88.88 43.51L88.88 43.51Q93.38 38.00 101.00 38.00L101.00 38.00L101.00 38.00Q107.75 38.00 111.66 42.71L111.66 42.71L111.66 42.71Q115.56 47.43 115.56 55.51L115.56 55.51L115.56 58.32L88.03 58.32L88.03 58.32Q88.10 66.20 91.71 70.35L91.71 70.35L91.71 70.35Q95.31 74.50 102.02 74.50L102.02 74.50L102.02 74.50Q105.29 74.50 107.77 74.04L107.77 74.04L107.77 74.04Q110.25 73.58 114.05 72.07L114.05 72.07L114.05 75.23L114.05 75.23Q110.81 76.64 108.07 77.15L108.07 77.15L108.07 77.15Q105.33 77.66 102.02 77.66ZM101.00 41.10L101.00 41.10L101.00 41.10Q95.48 41.10 92.14 44.74L92.14 44.74L92.14 44.74Q88.80 48.38 88.24 55.23L88.24 55.23L111.87 55.23L111.87 55.23Q111.87 48.59 108.98 44.84L108.98 44.84L108.98 44.84Q106.10 41.10 101.00 41.10ZM173.78 73.65L173.78 76.96L145.69 76.96L145.69 25.56L173.78 25.56L173.78 28.86L149.27 28.86L149.27 48.30L172.41 48.30L172.41 51.61L149.27 51.61L149.27 73.65L173.78 73.65ZM235.72 76.96L232.28 76.96L232.28 51.89L232.28 51.89Q232.28 46.30 230.10 43.73L230.10 43.73L230.10 43.73Q227.92 41.17 223.42 41.17L223.42 41.17L223.42 41.17Q217.55 41.17 214.73 44.40L214.73 44.40L214.73 44.40Q211.92 47.64 211.92 54.56L211.92 54.56L211.92 76.96L208.37 76.96L208.37 50.84L208.37 50.84Q208.37 41.17 199.51 41.17L199.51 41.17L199.51 41.17Q193.50 41.17 190.76 44.67L190.76 44.67L190.76 44.67Q188.02 48.16 188.02 55.86L188.02 55.86L188.02 76.96L184.54 76.96L184.54 38.74L187.42 38.74L188.16 43.98L188.37 43.98L188.37 43.98Q189.95 41.13 192.87 39.57L192.87 39.57L192.87 39.57Q195.79 38.00 199.30 38.00L199.30 38.00L199.30 38.00Q208.34 38.00 210.90 44.79L210.90 44.79L211.04 44.79L211.04 44.79Q212.91 41.52 216.05 39.76L216.05 39.76L216.05 39.76Q219.20 38.00 223.21 38.00L223.21 38.00L223.21 38.00Q229.46 38.00 232.59 41.34L232.59 41.34L232.59 41.34Q235.72 44.68 235.72 51.96L235.72 51.96L235.72 76.96ZM264.45 77.66L264.45 77.66L264.45 77.66Q255.62 77.66 251.58 71.05L251.58 71.05L251.33 71.05L251.44 74.00L251.44 74.00Q251.58 76.61 251.58 79.70L251.58 79.70L251.58 94.25L248.10 94.25L248.10 38.74L251.05 38.74L251.72 44.19L251.93 44.19L251.93 44.19Q255.87 38.00 264.52 38.00L264.52 38.00L264.52 38.00Q272.25 38.00 276.31 43.08L276.31 43.08L276.31 43.08Q280.37 48.16 280.37 57.87L280.37 57.87L280.37 57.87Q280.37 67.29 276.10 72.47L276.10 72.47L276.10 72.47Q271.83 77.66 264.45 77.66ZM264.38 74.57L264.38 74.57L264.38 74.57Q270.25 74.57 273.46 70.21L273.46 70.21L273.46 70.21Q276.68 65.85 276.68 58.01L276.68 58.01L276.68 58.01Q276.68 41.17 264.52 41.17L264.52 41.17L264.52 41.17Q257.84 41.17 254.71 44.84L254.71 44.84L254.71 44.84Q251.58 48.52 251.58 56.81L251.58 56.81L251.58 57.94L251.58 57.94Q251.58 66.90 254.58 70.73L254.58 70.73L254.58 70.73Q257.59 74.57 264.38 74.57ZM294.43 38.74L294.43 76.96L290.95 76.96L290.95 38.74L294.43 38.74ZM290.46 28.13L290.46 28.13L290.46 28.13Q290.46 24.75 292.68 24.75L292.68 24.75L292.68 24.75Q293.77 24.75 294.38 25.63L294.38 25.63L294.38 25.63Q295.00 26.51 295.00 28.13L295.00 28.13L295.00 28.13Q295.00 29.71 294.38 30.62L294.38 30.62L294.38 30.62Q293.77 31.54 292.68 31.54L292.68 31.54L292.68 31.54Q290.46 31.54 290.46 28.13ZM322.28 38.00L322.28 38.00L322.28 38.00Q324.70 38.00 327.48 38.50L327.48 38.50L326.81 41.84L326.81 41.84Q324.42 41.24 321.86 41.24L321.86 41.24L321.86 41.24Q316.97 41.24 313.84 45.39L313.84 45.39L313.84 45.39Q310.71 49.54 310.71 55.86L310.71 55.86L310.71 76.96L307.23 76.96L307.23 38.74L310.18 38.74L310.54 45.63L310.78 45.63L310.78 45.63Q313.14 41.41 315.81 39.71L315.81 39.71L315.81 39.71Q318.48 38.00 322.28 38.00ZM349.24 77.66L349.24 77.66L349.24 77.66Q340.91 77.66 336.25 72.53L336.25 72.53L336.25 72.53Q331.59 67.39 331.59 58.15L331.59 58.15L331.59 58.15Q331.59 49.01 336.09 43.51L336.09 43.51L336.09 43.51Q340.59 38.00 348.22 38.00L348.22 38.00L348.22 38.00Q354.97 38.00 358.88 42.71L358.88 42.71L358.88 42.71Q362.78 47.43 362.78 55.51L362.78 55.51L362.78 58.32L335.25 58.32L335.25 58.32Q335.32 66.20 338.92 70.35L338.92 70.35L338.92 70.35Q342.53 74.50 349.24 74.50L349.24 74.50L349.24 74.50Q352.51 74.50 354.99 74.04L354.99 74.04L354.99 74.04Q357.47 73.58 361.27 72.07L361.27 72.07L361.27 75.23L361.27 75.23Q358.03 76.64 355.29 77.15L355.29 77.15L355.29 77.15Q352.55 77.66 349.24 77.66ZM348.22 41.10L348.22 41.10L348.22 41.10Q342.70 41.10 339.36 44.74L339.36 44.74L339.36 44.74Q336.02 48.38 335.46 55.23L335.46 55.23L359.09 55.23L359.09 55.23Q359.09 48.59 356.20 44.84L356.20 44.84L356.20 44.84Q353.32 41.10 348.22 41.10ZM421.28 63.70L421.28 63.70L421.28 63.70Q421.28 70.14 416.55 73.90L416.55 73.90L416.55 73.90Q411.82 77.66 403.98 77.66L403.98 77.66L403.98 77.66Q394.56 77.66 389.53 75.59L389.53 75.59L389.53 72L389.53 72Q395.09 74.36 403.70 74.36L403.70 74.36L403.70 74.36Q410.03 74.36 413.74 71.46L413.74 71.46L413.74 71.46Q417.45 68.55 417.45 63.84L417.45 63.84L417.45 63.84Q417.45 60.93 416.21 59.01L416.21 59.01L416.21 59.01Q414.98 57.09 412.21 55.51L412.21 55.51L412.21 55.51Q409.43 53.93 404.05 52.10L404.05 52.10L404.05 52.10Q396.18 49.39 393.17 46.25L393.17 46.25L393.17 46.25Q390.16 43.10 390.16 37.86L390.16 37.86L390.16 37.86Q390.16 32.10 394.68 28.46L394.68 28.46L394.68 28.46Q399.20 24.82 406.30 24.82L406.30 24.82L406.30 24.82Q413.54 24.82 419.91 27.56L419.91 27.56L418.61 30.66L418.61 30.66Q412.21 27.98 406.37 27.98L406.37 27.98L406.37 27.98Q400.68 27.98 397.30 30.62L397.30 30.62L397.30 30.62Q393.93 33.26 393.93 37.79L393.93 37.79L393.93 37.79Q393.93 40.64 394.96 42.47L394.96 42.47L394.96 42.47Q396 44.30 398.36 45.76L398.36 45.76L398.36 45.76Q400.71 47.21 406.44 49.25L406.44 49.25L406.44 49.25Q412.45 51.33 415.48 53.28L415.48 53.28L415.48 53.28Q418.50 55.23 419.89 57.71L419.89 57.71L419.89 57.71Q421.28 60.19 421.28 63.70ZM441.35 74.57L441.35 74.57L441.35 74.57Q444.66 74.57 447.12 74.00L447.12 74.00L447.12 76.82L447.12 76.82Q444.59 77.66 441.28 77.66L441.28 77.66L441.28 77.66Q436.22 77.66 433.81 74.95L433.81 74.95L433.81 74.95Q431.40 72.25 431.40 66.45L431.40 66.45L431.40 41.77L425.74 41.77L425.74 39.73L431.40 38.14L433.16 29.50L434.95 29.50L434.95 38.74L446.17 38.74L446.17 41.77L434.95 41.77L434.95 65.95L434.95 65.95Q434.95 70.35 436.50 72.46L436.50 72.46L436.50 72.46Q438.05 74.57 441.35 74.57ZM470.43 38.00L470.43 38.00L470.43 38.00Q472.85 38.00 475.63 38.50L475.63 38.50L474.96 41.84L474.96 41.84Q472.57 41.24 470.00 41.24L470.00 41.24L470.00 41.24Q465.12 41.24 461.99 45.39L461.99 45.39L461.99 45.39Q458.86 49.54 458.86 55.86L458.86 55.86L458.86 76.96L455.38 76.96L455.38 38.74L458.33 38.74L458.68 45.63L458.93 45.63L458.93 45.63Q461.29 41.41 463.96 39.71L463.96 39.71L463.96 39.71Q466.63 38.00 470.43 38.00ZM486.88 38.74L486.88 76.96L483.40 76.96L483.40 38.74L486.88 38.74ZM482.91 28.13L482.91 28.13L482.91 28.13Q482.91 24.75 485.12 24.75L485.12 24.75L485.12 24.75Q486.21 24.75 486.83 25.63L486.83 25.63L486.83 25.63Q487.44 26.51 487.44 28.13L487.44 28.13L487.44 28.13Q487.44 29.71 486.83 30.62L486.83 30.62L486.83 30.62Q486.21 31.54 485.12 31.54L485.12 31.54L485.12 31.54Q482.91 31.54 482.91 28.13ZM502.91 60.19L503.09 60.19L522.60 38.74L526.82 38.74L511.77 55.05L528.12 76.96L523.93 76.96L509.41 57.66L503.16 63.35L503.16 76.96L499.68 76.96L499.68 22.25L503.16 22.25L503.16 49.68L502.91 60.19ZM548.51 77.66L548.51 77.66L548.51 77.66Q540.18 77.66 535.52 72.53L535.52 72.53L535.52 72.53Q530.86 67.39 530.86 58.15L530.86 58.15L530.86 58.15Q530.86 49.01 535.36 43.51L535.36 43.51L535.36 43.51Q539.86 38.00 547.49 38.00L547.49 38.00L547.49 38.00Q554.24 38.00 558.14 42.71L558.14 42.71L558.14 42.71Q562.04 47.43 562.04 55.51L562.04 55.51L562.04 58.32L534.52 58.32L534.52 58.32Q534.59 66.20 538.19 70.35L538.19 70.35L538.19 70.35Q541.79 74.50 548.51 74.50L548.51 74.50L548.51 74.50Q551.78 74.50 554.26 74.04L554.26 74.04L554.26 74.04Q556.73 73.58 560.53 72.07L560.53 72.07L560.53 75.23L560.53 75.23Q557.30 76.64 554.55 77.15L554.55 77.15L554.55 77.15Q551.81 77.66 548.51 77.66ZM547.49 41.10L547.49 41.10L547.49 41.10Q541.97 41.10 538.63 44.74L538.63 44.74L538.63 44.74Q535.29 48.38 534.73 55.23L534.73 55.23L558.35 55.23L558.35 55.23Q558.35 48.59 555.47 44.84L555.47 44.84L555.47 44.84Q552.59 41.10 547.49 41.10ZM596.29 67.01L596.29 67.01L596.29 67.01Q596.29 72.14 592.38 74.90L592.38 74.90L592.38 74.90Q588.48 77.66 581.31 77.66L581.31 77.66L581.31 77.66Q573.64 77.66 569.14 75.30L569.14 75.30L569.14 71.54L569.14 71.54Q574.91 74.43 581.31 74.43L581.31 74.43L581.31 74.43Q586.97 74.43 589.90 72.54L589.90 72.54L589.90 72.54Q592.84 70.66 592.84 67.54L592.84 67.54L592.84 67.54Q592.84 64.65 590.50 62.68L590.50 62.68L590.50 62.68Q588.16 60.71 582.82 58.82L582.82 58.82L582.82 58.82Q577.09 56.74 574.77 55.25L574.77 55.25L574.77 55.25Q572.45 53.75 571.27 51.87L571.27 51.87L571.27 51.87Q570.09 49.99 570.09 47.29L570.09 47.29L570.09 47.29Q570.09 43.00 573.70 40.50L573.70 40.50L573.70 40.50Q577.30 38.00 583.77 38.00L583.77 38.00L583.77 38.00Q589.96 38.00 595.51 40.32L595.51 40.32L594.21 43.49L594.21 43.49Q588.59 41.17 583.77 41.17L583.77 41.17L583.77 41.17Q579.09 41.17 576.35 42.71L576.35 42.71L576.35 42.71Q573.61 44.26 573.61 47.00L573.61 47.00L573.61 47.00Q573.61 49.99 575.74 51.79L575.74 51.79L575.74 51.79Q577.86 53.58 584.05 55.79L584.05 55.79L584.05 55.79Q589.22 57.66 591.57 59.15L591.57 59.15L591.57 59.15Q593.93 60.64 595.11 62.54L595.11 62.54L595.11 62.54Q596.29 64.44 596.29 67.01ZM625.71 76.96L625.71 25.56L639.81 25.56L639.81 25.56Q649.34 25.56 653.80 28.79L653.80 28.79L653.80 28.79Q658.27 32.03 658.27 38.57L658.27 38.57L658.27 38.57Q658.27 43.03 655.54 46.00L655.54 46.00L655.54 46.00Q652.82 48.97 647.58 49.82L647.58 49.82L647.58 50.03L647.58 50.03Q653.73 50.94 656.63 53.91L656.63 53.91L656.63 53.91Q659.53 56.88 659.53 62.19L659.53 62.19L659.53 62.19Q659.53 69.29 654.82 73.13L654.82 73.13L654.82 73.13Q650.11 76.96 641.46 76.96L641.46 76.96L625.71 76.96ZM629.30 28.72L629.30 48.45L640.62 48.45L640.62 48.45Q647.86 48.45 651.15 46.04L651.15 46.04L651.15 46.04Q654.43 43.63 654.43 38.50L654.43 38.50L654.43 38.50Q654.43 33.36 650.72 31.04L650.72 31.04L650.72 31.04Q647.02 28.72 639.67 28.72L639.67 28.72L629.30 28.72ZM640.62 51.61L629.30 51.61L629.30 73.79L641.39 73.79L641.39 73.79Q655.66 73.79 655.66 62.19L655.66 62.19L655.66 62.19Q655.66 51.61 640.62 51.61L640.62 51.61ZM695.74 76.96L693.18 76.96L692.30 70.91L692.02 70.91L692.02 70.91Q689.13 74.60 686.09 76.13L686.09 76.13L686.09 76.13Q683.05 77.66 678.90 77.66L678.90 77.66L678.90 77.66Q673.28 77.66 670.15 74.78L670.15 74.78L670.15 74.78Q667.02 71.89 667.02 66.80L667.02 66.80L667.02 66.80Q667.02 61.21 671.68 58.11L671.68 58.11L671.68 58.11Q676.34 55.02 685.16 54.84L685.16 54.84L692.44 54.63L692.44 52.10L692.44 52.10Q692.44 46.65 690.22 43.88L690.22 43.88L690.22 43.88Q688.01 41.10 683.09 41.10L683.09 41.10L683.09 41.10Q677.78 41.10 672.08 44.05L672.08 44.05L670.78 41.03L670.78 41.03Q677.07 38.07 683.23 38.07L683.23 38.07L683.23 38.07Q689.52 38.07 692.63 41.34L692.63 41.34L692.63 41.34Q695.74 44.61 695.74 51.54L695.74 51.54L695.74 76.96ZM679.11 74.50L679.11 74.50L679.11 74.50Q685.23 74.50 688.76 71.00L688.76 71.00L688.76 71.00Q692.30 67.50 692.30 61.28L692.30 61.28L692.30 57.52L685.62 57.80L685.62 57.80Q677.57 58.18 674.14 60.31L674.14 60.31L674.14 60.31Q670.71 62.44 670.71 66.94L670.71 66.94L670.71 66.94Q670.71 70.52 672.91 72.51L672.91 72.51L672.91 72.51Q675.11 74.50 679.11 74.50ZM723.38 77.66L723.38 77.66L723.38 77.66Q715.18 77.66 710.54 72.49L710.54 72.49L710.54 72.49Q705.90 67.32 705.90 58.08L705.90 58.08L705.90 58.08Q705.90 48.59 710.72 43.29L710.72 43.29L710.72 43.29Q715.54 38.00 723.90 38.00L723.90 38.00L723.90 38.00Q728.86 38.00 733.39 39.73L733.39 39.73L732.45 42.82L732.45 42.82Q727.49 41.17 723.83 41.17L723.83 41.17L723.83 41.17Q716.80 41.17 713.18 45.51L713.18 45.51L713.18 45.51Q709.56 49.85 709.56 58.01L709.56 58.01L709.56 58.01Q709.56 65.74 713.18 70.12L713.18 70.12L713.18 70.12Q716.80 74.50 723.30 74.50L723.30 74.50L723.30 74.50Q728.51 74.50 732.97 72.63L732.97 72.63L732.97 75.87L732.97 75.87Q729.32 77.66 723.38 77.66ZM745.56 60.19L745.73 60.19L765.25 38.74L769.46 38.74L754.42 55.05L770.77 76.96L766.58 76.96L752.06 57.66L745.80 63.35L745.80 76.96L742.32 76.96L742.32 22.25L745.80 22.25L745.80 49.68L745.56 60.19Z"/></svg>
